<svg version="1.1" id="Layer_1" xmlns="http://www.w3.org/2000/svg" xmlns:xlink="http://www.w3.org/1999/xlink" x="0px" y="0px"
	 width="100%" viewBox="0 0 1875 1875" enable-background="new 0 0 1875 1875" xml:space="preserve">
<path fill="none" opacity="1.000000" stroke="none" 
	d="
M692.000000,1.000004 
	C1086.645630,1.000000 1481.291382,1.000000 1875.968506,1.000000 
	C1875.968506,625.945740 1875.968506,1250.891479 1875.968506,1875.918579 
	C1251.087524,1875.918579 626.175110,1875.918579 1.131311,1875.918579 
	C1.131311,1251.120850 1.131311,626.241638 1.131311,1.000000 
	C216.034775,1.000000 431.069763,1.000000 646.465393,1.346694 
	C644.410828,2.802764 642.031433,3.999266 639.575073,5.008572 
	C598.486511,21.891733 559.422180,42.670933 521.779419,66.184814 
	C512.110718,72.224426 511.382446,72.497536 514.877625,83.441513 
	C524.392456,113.233765 534.679321,142.778519 544.505371,172.472610 
	C549.888428,188.740082 554.916260,205.124847 560.206543,221.423523 
	C561.182312,224.429855 560.299500,226.214127 557.914368,228.183578 
	C543.909058,239.748093 529.899475,251.316071 516.177917,263.213501 
	C489.774017,286.107391 461.167816,306.559235 438.224976,333.313568 
	C435.738556,336.213074 432.693329,338.628174 430.131592,341.470093 
	C428.059753,343.768646 426.115265,343.983032 423.163971,342.964172 
	C376.592682,326.886139 329.987091,310.906860 283.352631,295.012726 
	C267.818054,289.718140 267.474579,289.653748 258.069397,303.375702 
	C247.525284,318.759399 237.482956,334.491669 227.410110,350.192719 
	C208.261139,380.041168 189.245880,409.975372 169.714417,440.596191 
	C208.613037,480.328613 252.231049,514.309387 293.822449,551.513306 
	C283.307068,581.781372 272.309082,613.011719 261.621490,644.347961 
	C254.120300,666.341553 244.368973,687.781189 244.541992,711.797180 
	C244.556992,713.880310 241.809174,716.426025 239.747055,717.946106 
	C237.989258,719.241882 235.409012,719.600098 233.127151,719.979858 
	C202.740829,725.036865 172.315720,729.866028 141.957657,735.085632 
	C122.105240,738.499023 102.345436,742.451172 82.545288,746.168030 
	C80.167740,746.614380 78.327560,747.234497 78.031937,750.381836 
	C77.253639,758.668518 75.577324,766.888916 75.111572,775.183533 
	C73.627129,801.620178 72.121544,828.067749 71.421082,854.532166 
	C70.914619,873.666931 71.270721,892.850769 72.006050,911.983398 
	C72.554352,926.249695 76.027962,929.278137 90.341660,931.245972 
	C96.103424,932.038086 101.971161,932.394043 107.604416,933.732422 
	C146.640182,943.006836 185.622955,952.504089 224.634781,961.879761 
	C228.989044,962.926147 234.881409,962.272827 237.398453,964.929749 
	C239.871231,967.539856 238.951187,973.364197 239.520660,977.777954 
	C239.541992,977.943237 239.561630,978.109314 239.596207,978.272095 
	C243.745987,997.798279 247.454697,1017.431396 252.150620,1036.825439 
	C259.398804,1066.760132 267.145264,1096.584839 279.237244,1125.053467 
	C282.430908,1132.572510 282.399994,1132.585815 276.383148,1138.282959 
	C276.262207,1138.397583 276.144897,1138.516357 276.021179,1138.627808 
	C247.515945,1164.309937 217.522064,1188.083130 186.099075,1210.131958 
	C174.986938,1217.929077 165.048172,1227.398438 155.155853,1235.620605 
	C160.330063,1245.759888 165.203522,1255.218872 169.988022,1264.722534 
	C172.531754,1269.775146 174.626099,1275.074463 177.430573,1279.972046 
	C191.335281,1304.254150 205.095032,1328.629150 219.556976,1352.578247 
	C226.684174,1364.380981 235.133667,1375.394409 243.150925,1386.646729 
	C247.703156,1393.035889 253.931000,1394.609619 261.266724,1391.980957 
	C263.615936,1391.139404 265.943573,1390.233154 268.312042,1389.450073 
	C283.631042,1384.384888 298.858917,1379.012939 314.308105,1374.379761 
	C334.540497,1368.312256 354.918060,1362.718018 375.297119,1357.154541 
	C384.917023,1354.528320 394.653442,1352.292358 404.415436,1350.255249 
	C406.285370,1349.865112 409.235809,1350.561523 410.477722,1351.888794 
	C422.202118,1364.419678 433.607666,1377.247803 445.213684,1389.890747 
	C469.560028,1416.412231 494.077667,1442.757690 523.486938,1463.938843 
	C525.771667,1465.584473 527.728943,1467.684937 529.837402,1469.574951 
	C533.283691,1472.664551 534.106323,1475.886353 532.402527,1480.638672 
	C515.659790,1527.337280 499.233368,1574.149414 482.563782,1620.874390 
	C481.475494,1623.925049 481.664459,1625.665771 484.392883,1627.460571 
	C488.285217,1630.020996 491.884064,1633.023193 495.732361,1635.655518 
	C530.007568,1659.100464 566.017761,1679.685181 602.292297,1699.797852 
	C612.895996,1705.677002 624.032593,1710.637329 635.113037,1715.598755 
	C642.147095,1718.748291 649.232056,1719.930176 653.620361,1711.109863 
	C653.762634,1710.823853 654.062805,1710.615356 654.293457,1710.374756 
	C684.040894,1679.345947 713.937744,1648.458252 743.444397,1617.202026 
	C752.146545,1607.984131 761.441284,1606.084229 773.189209,1610.142578 
	C794.887817,1617.638550 816.652832,1625.025391 838.682556,1631.456543 
	C862.294800,1638.349731 885.515015,1646.818481 910.173340,1649.913574 
	C918.000671,1650.896240 925.650574,1653.633301 933.219482,1656.070923 
	C934.893921,1656.610352 936.651489,1659.115723 937.057495,1660.999023 
	C939.267944,1671.251587 940.891541,1681.629639 943.040283,1691.896729 
	C950.645447,1728.235962 958.452820,1764.532959 966.001648,1800.883667 
	C967.329407,1807.277588 970.858032,1811.035889 977.069580,1812.052856 
	C988.067566,1813.853394 999.066345,1815.962524 1010.152344,1816.855103 
	C1051.750488,1820.204346 1093.412842,1819.328369 1135.061646,1817.802979 
	C1143.180786,1817.505737 1151.281494,1816.701294 1159.109375,1816.150513 
	C1161.873657,1805.113525 1164.565674,1794.659302 1167.106689,1784.168335 
	C1176.630371,1744.846924 1186.120117,1705.517090 1195.563110,1666.176147 
	C1196.187256,1663.576172 1196.702393,1662.008301 1200.131470,1661.639282 
	C1216.676392,1659.858765 1233.299805,1658.309937 1249.652832,1655.342041 
	C1290.341431,1647.957520 1330.003174,1636.407593 1369.443359,1624.134155 
	C1373.059814,1623.008789 1375.700317,1623.231445 1378.338501,1625.955200 
	C1385.172729,1633.010864 1392.447754,1639.665527 1398.966431,1646.996338 
	C1422.764771,1673.759644 1446.347290,1700.715332 1469.953735,1727.648804 
	C1473.464111,1731.653931 1477.023193,1735.698730 1479.896362,1740.153076 
	C1482.051880,1743.494751 1484.399170,1744.137939 1487.732056,1742.861084 
	C1501.079956,1737.747314 1515.019287,1733.769775 1527.641235,1727.246460 
	C1561.804077,1709.590088 1595.421143,1690.876465 1629.217163,1672.512939 
	C1636.798706,1668.393433 1644.226440,1663.990845 1651.931030,1659.600952 
	C1644.409912,1636.729492 1637.011230,1614.130981 1629.545776,1591.554565 
	C1621.291992,1566.593872 1612.908691,1541.675659 1604.719360,1516.693848 
	C1600.946777,1505.185181 1603.311890,1494.518066 1609.161621,1484.099609 
	C1623.348511,1458.832275 1637.198853,1433.375977 1651.183228,1407.994873 
	C1667.320312,1378.706787 1683.454712,1349.417358 1699.592407,1320.129761 
	C1702.901123,1314.125122 1702.001099,1309.913696 1696.427124,1305.934570 
	C1666.779419,1334.187988 1637.029907,1362.382568 1607.461670,1390.765869 
	C1584.313721,1412.985962 1558.742188,1432.041260 1532.027588,1449.677002 
	C1525.780762,1453.800781 1519.868164,1458.427979 1513.721680,1462.708618 
	C1511.304810,1464.391846 1510.621216,1466.356567 1511.585571,1469.113892 
	C1514.273315,1476.799561 1516.260742,1484.797729 1519.636719,1492.162842 
	C1531.007324,1516.968994 1542.970459,1541.502808 1554.491943,1566.240967 
	C1562.355347,1583.124756 1569.860107,1600.175537 1577.464111,1617.016357 
	C1576.864136,1617.743408 1576.593018,1618.169556 1576.231689,1618.495972 
	C1553.216919,1639.292969 1525.440552,1651.893433 1497.359497,1663.841064 
	C1494.760742,1664.946899 1490.604980,1663.649414 1487.678589,1662.337646 
	C1485.275513,1661.260498 1483.469360,1658.633301 1481.665649,1656.470337 
	C1462.034546,1632.930054 1442.436401,1609.362061 1422.869751,1585.768066 
	C1408.303467,1568.203613 1393.708496,1550.661377 1379.362671,1532.917847 
	C1377.337646,1530.413208 1375.906616,1529.598145 1372.875610,1530.719482 
	C1363.671021,1534.124268 1354.487427,1537.663208 1345.088989,1540.453979 
	C1302.937134,1552.969971 1260.668945,1565.011108 1216.852051,1570.496582 
	C1195.695923,1573.145386 1174.607544,1576.335693 1153.453369,1579.002075 
	C1147.975708,1579.692505 1144.497681,1582.110596 1142.854248,1587.276978 
	C1141.191772,1592.503052 1138.885376,1597.631958 1138.031860,1602.989868 
	C1133.134277,1633.732910 1128.681885,1664.546631 1123.877441,1695.304932 
	C1121.385376,1711.259399 1118.473389,1727.148193 1115.765259,1743.069092 
	C1115.048096,1747.285278 1113.110962,1749.288574 1108.328491,1748.973877 
	C1102.876587,1748.615234 1097.304932,1748.962891 1091.869507,1749.660278 
	C1065.194336,1753.082031 1039.225220,1747.470825 1012.815979,1743.971191 
	C1011.560974,1731.269165 1010.354126,1718.681152 1009.067566,1706.101318 
	C1005.101440,1667.321045 1001.225647,1628.530884 997.049011,1589.773315 
	C995.742004,1577.644409 992.463440,1575.075439 980.510986,1572.855347 
	C951.869202,1567.534912 923.145508,1562.544922 894.700195,1556.303345 
	C850.801636,1546.670776 808.973938,1530.604980 767.685303,1513.144897 
	C763.788818,1511.497192 760.888611,1511.453369 757.866089,1514.465088 
	C751.144836,1521.162231 743.910400,1527.389160 737.603027,1534.449219 
	C708.519226,1567.003662 679.689331,1599.785034 650.746826,1632.465820 
	C646.807129,1636.914673 642.745911,1641.255737 639.193542,1645.150391 
	C623.791382,1637.128662 608.492493,1630.306885 594.426270,1621.513306 
	C580.280273,1612.670166 567.360840,1601.864990 553.924500,1591.934814 
	C579.692017,1540.309937 605.012085,1489.581543 629.857056,1439.805054 
	C609.376282,1421.943359 589.307007,1404.934326 569.799072,1387.304199 
	C544.456970,1364.401733 519.235046,1341.344971 494.598480,1317.690918 
	C480.309204,1303.971558 467.062958,1289.122681 458.552032,1270.765015 
	C458.082825,1269.752808 455.420502,1268.944458 454.085571,1269.276001 
	C443.937561,1271.795898 433.598755,1273.895020 423.817200,1277.482422 
	C383.037964,1292.438599 342.434937,1307.875366 301.759308,1323.114624 
	C300.047821,1323.755859 298.275085,1324.258301 296.499786,1324.700317 
	C290.620239,1326.163696 285.437134,1324.813965 281.678375,1320.027832 
	C278.193268,1315.590210 274.687683,1311.039917 272.062347,1306.078369 
	C261.474457,1286.068604 251.175079,1265.904907 240.971329,1245.696045 
	C240.371414,1244.507935 240.965683,1241.737183 241.991089,1240.870117 
	C247.829071,1235.934204 253.669678,1230.897339 260.055573,1226.732178 
	C284.743256,1210.630493 309.848480,1195.162354 334.374725,1178.822510 
	C348.912231,1169.137329 362.629578,1158.224731 376.783081,1147.956787 
	C379.527710,1145.965698 380.067963,1143.805786 378.838257,1140.725586 
	C376.308777,1134.389893 374.418915,1127.765869 371.502899,1121.622681 
	C348.892761,1073.989380 336.130432,1023.338135 325.916443,971.978333 
	C322.544952,955.025452 321.204803,937.672363 318.725983,920.532654 
	C318.451630,918.635681 317.051453,915.602173 315.738770,915.348999 
	C295.145416,911.376465 274.548737,907.323853 253.816788,904.189392 
	C220.221802,899.110229 186.511688,894.797241 152.883682,889.929321 
	C141.865387,888.334412 138.305573,883.285522 139.006454,872.063660 
	C139.213196,868.754028 139.306747,865.417114 139.143890,862.107910 
	C138.192612,842.779541 137.863647,823.493225 141.224060,804.308960 
	C143.060471,793.824951 145.288101,791.264526 155.865326,788.990662 
	C158.139526,788.501770 160.453796,788.056824 162.768829,787.922180 
	C186.056442,786.567932 209.372925,785.616943 232.631760,783.886536 
	C257.378418,782.045410 282.097748,779.732483 306.776123,777.125061 
	C317.858612,775.954224 321.553619,771.309937 322.936127,760.264832 
	C324.174622,750.370117 325.746277,740.517578 327.103149,730.637146 
	C331.151794,701.156311 338.570374,672.440247 348.469482,644.485107 
	C359.574799,613.123779 369.805634,581.380432 384.621704,551.431152 
	C388.075806,544.449097 387.208893,542.139709 380.804016,537.587402 
	C370.757477,530.446716 360.562439,523.510864 350.616272,516.234070 
	C324.964874,497.467102 299.434021,478.535431 273.811371,459.729065 
	C267.802277,455.318542 261.620422,451.143494 256.083282,447.256897 
	C267.495636,415.628784 285.003357,388.334686 307.755768,363.576538 
	C309.197052,364.043793 311.789154,364.666199 314.204651,365.700928 
	C338.226074,375.990662 362.096130,386.644897 386.254150,396.601288 
	C409.007507,405.978821 432.063477,414.621216 454.969482,423.629761 
	C462.324707,426.522400 467.365326,424.438232 472.412140,418.144714 
	C486.789337,400.215942 500.778351,381.752716 516.987122,365.570221 
	C539.116943,343.476288 562.971008,323.085144 586.442200,302.367737 
	C601.565491,289.018799 617.431274,276.459320 635.570679,267.366791 
	C640.646179,264.822632 642.142944,262.057648 640.451477,257.063385 
	C633.517761,236.590469 627.166016,215.895004 619.473022,195.711014 
	C609.336853,169.116974 598.066895,142.956604 587.448486,116.543854 
	C584.332581,108.793297 584.586670,108.689201 591.243469,103.525139 
	C592.033203,102.912453 592.824646,102.298706 593.648132,101.733154 
	C614.791687,87.212013 637.550964,75.957863 661.964050,68.085472 
	C664.804688,67.169456 667.782227,66.676430 670.698425,65.996590 
	C675.977295,64.765984 679.541443,66.400024 682.833252,71.096207 
	C704.053650,101.369934 725.586243,131.425003 747.052124,161.526337 
	C754.857117,172.471237 762.760132,183.346298 769.756104,193.056412 
	C795.663208,184.346298 820.486938,175.157364 845.825500,167.723022 
	C870.235474,160.561142 894.926697,153.777588 919.944946,149.407257 
	C956.348328,143.048126 993.160889,139.039291 1029.779297,133.888000 
	C1032.373291,133.523117 1034.805176,132.007156 1037.607422,130.911072 
	C1034.493408,124.013588 1029.570923,121.385803 1023.404907,120.928810 
	C1013.437805,120.190094 1003.450439,119.729370 993.474060,119.112129 
	C957.382812,116.879097 921.302063,114.459824 885.198975,112.439034 
	C854.941284,110.745430 824.661926,109.415344 794.382751,108.148186 
	C788.052246,107.883255 783.308228,105.571449 779.373840,100.667709 
	C770.304688,89.364098 761.410583,77.881927 751.730957,67.114502 
	C733.351074,46.669155 714.454590,26.688585 695.827759,6.464275 
	C694.334534,4.842994 693.265869,2.830647 692.000000,1.000004 
M1381.990845,422.130829 
	C1397.282104,420.291718 1410.900757,414.408722 1422.555298,404.440063 
	C1441.202271,388.490509 1450.797852,368.007111 1448.852173,343.534760 
	C1446.295532,311.378265 1423.249268,285.484741 1391.442261,277.446808 
	C1355.322998,268.319092 1314.020752,279.465820 1298.715698,323.511841 
	C1283.674072,366.799713 1310.516846,411.954315 1355.159912,421.859375 
	C1355.383911,425.337799 1355.716919,428.813171 1355.814453,432.295135 
	C1356.480103,456.054962 1357.195312,479.814178 1357.686035,503.577850 
	C1357.928711,515.327271 1357.728149,527.085815 1357.728149,539.948364 
	C1352.205200,539.948364 1346.606079,539.948364 1340.950562,539.163757 
	C1338.781006,531.475830 1336.972290,523.664246 1334.384155,516.119873 
	C1316.167236,463.014801 1285.106567,418.170990 1245.243652,379.189514 
	C1221.404297,355.877411 1195.229492,335.639984 1164.496094,322.009064 
	C1126.174194,305.012543 1085.551880,297.000610 1044.234375,292.143585 
	C995.919983,286.464020 947.465149,286.146423 899.018799,290.257233 
	C853.906372,294.085175 809.469238,301.586029 766.738464,317.157684 
	C743.602661,325.588593 721.644287,336.214355 703.235779,353.104462 
	C690.804443,364.510376 683.682251,378.605988 681.270081,395.192810 
	C677.063843,424.116486 698.036377,442.035675 725.909363,433.052521 
	C732.841125,430.818512 739.612183,427.789215 746.040222,424.346954 
	C762.775757,415.385040 779.246094,405.929749 795.883057,396.781830 
	C833.743835,375.963776 873.299866,359.577179 915.923462,351.350342 
	C963.988220,342.073242 1012.214172,340.603455 1059.576416,353.959961 
	C1160.200195,382.336700 1232.698730,443.747742 1272.806152,540.848022 
	C1244.896606,540.848022 1216.987183,540.848022 1188.559082,540.848022 
	C1188.559082,548.953613 1188.559082,556.353760 1188.559082,564.219360 
	C1190.502319,564.219360 1192.302979,564.201111 1194.103149,564.222168 
	C1215.910767,564.477295 1237.727905,564.442566 1259.521362,565.140747 
	C1268.445557,565.426636 1277.318848,567.299561 1286.196289,569.242249 
	C1287.663696,577.937378 1288.274292,586.883423 1290.735229,595.287659 
	C1309.273315,658.596985 1339.290771,715.825317 1381.867432,766.417053 
	C1392.028931,778.491516 1401.993408,790.912964 1410.452759,804.191345 
	C1420.320923,819.680664 1419.750610,835.889832 1408.003784,850.718445 
	C1400.146973,860.636597 1391.802002,870.166443 1383.776489,879.953003 
	C1371.916382,894.415710 1370.896973,905.223267 1379.715088,921.739868 
	C1380.968872,924.088074 1382.438110,926.320251 1383.732178,928.648071 
	C1387.531738,935.482666 1391.510986,942.228821 1395.021973,949.209717 
	C1401.304688,961.701782 1399.916626,973.291260 1390.447754,983.857178 
	C1386.576294,988.177185 1383.104370,992.855225 1378.542114,998.493042 
	C1384.972168,1003.683167 1391.066162,1008.602051 1397.576538,1013.856995 
	C1396.815796,1015.477417 1396.013428,1017.850891 1394.691895,1019.887573 
	C1388.621094,1029.242920 1382.573486,1038.622437 1376.166870,1047.747070 
	C1373.188110,1051.989258 1371.761719,1056.196411 1372.969727,1061.296997 
	C1374.887573,1069.393921 1376.820312,1077.491943 1378.493042,1085.641479 
	C1382.473633,1105.037231 1386.286743,1124.467285 1390.219727,1143.872925 
	C1390.770020,1146.588501 1389.856934,1147.942017 1387.340576,1149.268311 
	C1367.893066,1159.518188 1347.354980,1164.536987 1325.286865,1163.521362 
	C1308.980469,1162.771118 1292.644897,1162.170288 1276.326416,1162.259521 
	C1237.278198,1162.473022 1206.681274,1178.978760 1184.744385,1211.279419 
	C1180.167358,1218.018921 1175.497192,1224.846069 1172.083008,1232.196167 
	C1161.636719,1254.685669 1152.012085,1277.555908 1141.639038,1300.080444 
	C1127.500000,1330.783203 1112.914795,1361.280029 1098.640015,1391.920776 
	C1095.501343,1398.657593 1092.863281,1405.627808 1089.839844,1412.861206 
	C1091.461304,1413.116699 1092.255737,1413.351562 1093.050171,1413.351196 
	C1118.379028,1413.337280 1143.708130,1413.240845 1169.036499,1413.341919 
	C1172.231323,1413.354614 1172.824585,1411.739624 1173.475342,1409.270630 
	C1177.548950,1393.817871 1181.646851,1378.370361 1185.915039,1362.970459 
	C1193.527954,1335.502441 1201.887085,1308.281494 1215.084473,1282.856934 
	C1227.177490,1259.560303 1242.944580,1239.440796 1265.694580,1225.500244 
	C1289.104858,1211.155151 1314.919312,1205.657837 1341.963989,1204.904297 
	C1359.784668,1204.407715 1377.670166,1205.020508 1395.423584,1203.723511 
	C1408.602173,1202.760742 1422.071777,1200.961792 1434.596069,1196.973755 
	C1453.961426,1190.807373 1462.462280,1175.815796 1458.127808,1155.942383 
	C1454.958740,1141.412109 1449.728394,1127.238770 1444.371948,1113.308105 
	C1440.298218,1102.713745 1440.721069,1093.636230 1447.201416,1084.116821 
	C1454.121826,1073.950684 1460.012207,1063.078369 1466.247070,1052.452637 
	C1470.184570,1045.742310 1469.182617,1039.937256 1464.079346,1033.762939 
	C1457.748779,1026.103882 1452.598267,1017.476013 1446.810303,1009.357788 
	C1444.817383,1006.562744 1445.471191,1004.478210 1447.251465,1001.801636 
	C1453.981323,991.683411 1460.400879,981.359375 1466.986572,971.144592 
	C1471.128784,964.719910 1470.966553,958.332275 1467.095337,951.883545 
	C1465.896118,949.886047 1464.824951,947.809753 1463.582397,945.840637 
	C1459.407104,939.224426 1454.936401,932.781067 1451.041870,926.005371 
	C1446.989624,918.954834 1445.987915,911.253052 1447.981201,903.285339 
	C1450.524658,893.117554 1456.172607,884.573975 1463.351807,877.335449 
	C1479.180054,861.376221 1495.544678,845.949890 1511.547974,830.161682 
	C1512.758179,828.967834 1513.833862,826.208618 1513.276855,824.896606 
	C1510.693604,818.811035 1508.510620,812.132751 1504.347778,807.223999 
	C1494.027832,795.054626 1483.360718,783.028809 1471.676025,772.192932 
	C1410.354370,715.325562 1369.119141,646.743958 1350.443237,565.157227 
	C1360.831421,564.862366 1371.219604,564.567444 1381.926880,564.263550 
	C1381.926880,561.690308 1381.942993,559.886230 1381.924561,558.082581 
	C1381.481323,514.877319 1381.025146,471.672119 1380.614746,428.466492 
	C1380.594482,426.338531 1380.965942,424.206848 1381.990845,422.130829 
M627.086792,594.596497 
	C638.281860,569.869690 649.793213,545.279419 660.542725,520.360413 
	C666.193542,507.260956 671.807678,493.899689 675.140869,480.101654 
	C680.747864,456.890656 664.515930,440.730225 640.988220,444.479553 
	C628.507568,446.468414 617.415588,451.459961 607.630371,459.392761 
	C590.365906,473.388763 577.985718,491.306213 567.163696,510.389038 
	C548.153259,543.910828 534.863037,579.767273 524.228271,616.689636 
	C500.385162,699.469238 498.085388,782.436951 521.970276,865.645264 
	C537.311462,919.089539 561.674561,968.362549 591.261841,1015.199097 
	C616.424561,1055.031616 643.887451,1093.003906 678.456970,1125.476318 
	C687.510559,1133.980713 695.299377,1143.940186 702.997192,1153.758179 
	C723.504333,1179.913452 735.040527,1209.202881 733.307495,1243.049438 
	C731.870483,1271.114014 725.899902,1298.153198 715.431030,1324.151367 
	C706.476074,1346.389526 696.772156,1368.326294 687.835754,1390.571777 
	C684.961060,1397.727661 683.474609,1405.441162 681.206604,1413.414673 
	C689.615845,1413.414673 696.912842,1413.448242 704.209473,1413.409668 
	C803.872437,1412.882080 903.535400,1412.345215 1003.198364,1411.807495 
	C1010.452332,1411.768311 1012.251953,1410.308105 1013.703735,1403.377563 
	C1013.976929,1402.073364 1014.299438,1400.779541 1014.588623,1399.478638 
	C1022.944946,1361.878296 1038.036865,1326.621460 1052.529541,1291.182983 
	C1067.025024,1255.737549 1082.781006,1220.787476 1093.522827,1183.911743 
	C1100.545776,1159.802246 1105.550171,1135.407715 1104.094360,1110.083984 
	C1102.693604,1085.715088 1094.961304,1063.648438 1078.927490,1045.108765 
	C1067.823120,1032.269043 1056.047241,1019.974121 1044.072144,1007.932251 
	C1025.513794,989.270508 1006.446045,971.195618 989.854309,950.585266 
	C973.361084,930.097168 958.240356,909.044067 947.947266,884.640930 
	C936.298157,857.022949 924.065613,829.648438 911.880737,802.259705 
	C895.703796,765.897644 879.822998,729.390625 862.856567,693.397705 
	C852.174255,670.735901 838.685242,649.621216 820.314758,632.124512 
	C808.330383,620.710205 794.633240,612.512817 777.800415,610.744446 
	C761.237732,609.004456 744.662354,607.378296 728.080627,605.829773 
	C722.387939,605.298096 716.659363,605.151184 710.502930,604.803406 
	C712.509094,615.865906 717.417114,624.740906 722.610168,633.465576 
	C728.317566,643.054321 734.714905,652.269348 739.893860,662.129211 
	C762.507141,705.180786 780.103149,750.298828 793.431824,797.019226 
	C803.663879,832.885071 810.121277,869.412598 809.021423,906.937012 
	C808.564575,922.523499 806.406189,937.828064 800.159851,952.274963 
	C789.466187,977.007751 768.947937,987.015930 742.850159,980.404602 
	C729.216309,976.950745 717.208801,970.221252 705.949463,962.035156 
	C681.995911,944.619690 663.819275,921.909729 647.308777,897.706177 
	C613.981995,848.850647 596.339905,795.097168 596.997437,735.695435 
	C597.537415,686.914429 608.237793,640.272522 627.086792,594.596497 
M1059.961304,579.585754 
	C1076.790039,587.225525 1093.478027,595.201172 1110.516724,602.339722 
	C1117.318359,605.189331 1124.815674,607.318176 1132.131836,607.827087 
	C1155.960205,609.484497 1178.804932,591.882324 1184.470093,568.446777 
	C1190.012695,545.518250 1177.033691,519.300598 1155.405518,509.668762 
	C1153.584961,508.857971 1151.886353,507.777557 1150.091431,506.903839 
	C1147.567017,505.675079 1146.648804,503.943665 1146.843262,500.949860 
	C1147.220581,495.145355 1147.330200,489.278107 1146.943604,483.477356 
	C1145.423340,460.668549 1132.412354,445.384949 1110.217041,439.940399 
	C1108.623291,439.549469 1107.041382,439.110687 1105.941040,438.821960 
	C1104.591675,431.079376 1103.762817,423.618042 1101.951172,416.403503 
	C1094.599487,387.126343 1055.956177,369.803589 1028.494263,390.650848 
	C1025.181152,393.165955 1021.808167,395.660522 1018.838257,398.550323 
	C1016.538147,400.788391 1014.622559,400.980988 1011.842651,399.547821 
	C1007.558350,397.339050 1003.133789,395.350952 998.633179,393.622040 
	C980.794800,386.769287 963.760803,388.215973 949.917480,401.857300 
	C943.431763,408.248322 938.774963,407.284760 932.102417,403.709625 
	C922.854370,398.754608 912.963623,396.414673 902.231018,397.911377 
	C864.185364,403.217102 844.501038,444.966003 865.570068,476.186249 
	C877.414246,493.737244 895.146484,502.262360 914.888062,507.954437 
	C922.064636,496.641418 928.004578,485.141876 931.450867,472.498840 
	C933.015198,466.760071 932.516357,465.570160 926.487000,465.034302 
	C922.045898,464.639587 917.295532,465.422455 912.960144,466.655304 
	C905.582825,468.753204 893.572876,464.653961 891.991272,458.551666 
	C890.187500,451.592163 890.503296,444.599640 893.992859,438.130035 
	C897.191467,432.199951 902.157715,428.804108 909.108887,429.749023 
	C916.016907,430.688110 922.247925,433.283691 924.364502,440.709717 
	C926.682922,448.844116 931.111023,454.356232 939.369995,457.286316 
	C947.157776,460.049286 948.984070,463.865448 946.170837,471.692139 
	C943.485352,479.163055 939.500061,486.162720 936.161133,493.404053 
	C933.379333,499.437073 930.530579,505.452301 928.138062,511.640381 
	C927.679504,512.826538 928.761047,515.686890 929.885437,516.238159 
	C940.335205,521.361206 950.922058,526.209961 961.543518,530.972412 
	C963.352356,531.783447 965.514221,531.806946 968.191772,532.325867 
	C967.033752,528.728088 966.558655,525.831543 965.231750,523.399780 
	C961.468506,516.503601 962.595703,510.069000 965.920349,503.410736 
	C971.871582,491.492371 977.465698,479.396088 983.362305,467.449799 
	C986.348633,461.399719 987.391479,455.219788 983.908386,449.281891 
	C978.530762,440.114441 989.943176,423.135590 1002.611389,424.534637 
	C1013.965149,425.788483 1021.693787,436.659424 1018.242188,447.608978 
	C1016.660217,452.627258 1015.075317,458.528259 1009.216797,459.852081 
	C1004.447083,460.929840 1001.290100,463.334198 999.081299,467.130402 
	C993.978455,475.900848 989.763916,485.239868 984.129517,493.637390 
	C975.257568,506.860046 974.995850,520.039734 981.124268,534.305420 
	C984.980042,543.280823 990.398438,547.927063 1000.512817,548.625549 
	C1008.244690,533.608765 1017.304321,519.373169 1012.471375,500.684967 
	C1009.953430,490.948364 1018.083496,482.778900 1028.265869,481.231476 
	C1037.405518,479.842529 1046.060547,484.954773 1047.953857,493.502289 
	C1050.333252,504.243958 1048.224854,512.913330 1036.889648,516.165039 
	C1030.610962,517.966248 1025.787598,521.976013 1022.946350,527.589294 
	C1018.982483,535.420715 1015.731934,543.629333 1012.544983,551.820007 
	C1012.083862,553.005005 1013.207092,555.653381 1014.395813,556.490479 
	C1020.319702,560.661865 1026.793701,561.819763 1033.796997,559.095520 
	C1041.553833,556.078064 1049.567871,553.651245 1057.110107,550.184692 
	C1060.479126,548.636292 1063.866577,545.686279 1065.685303,542.485657 
	C1070.529907,533.960449 1074.556030,524.967834 1078.851929,516.134094 
	C1081.780273,510.112732 1082.128540,503.847809 1081.625244,497.164001 
	C1081.185059,491.318329 1081.627563,485.123749 1083.152832,479.481476 
	C1085.228638,471.803314 1092.446655,468.269775 1100.158447,470.305603 
	C1108.196289,472.427521 1113.529297,477.634186 1115.510864,485.807922 
	C1117.399658,493.598907 1112.929077,503.744537 1106.189575,505.182922 
	C1096.994873,507.145233 1092.636719,513.294617 1089.136963,521.069763 
	C1084.285645,531.847107 1079.118408,542.483887 1073.987061,553.132874 
	C1071.848999,557.569885 1068.418823,559.989380 1063.375977,561.249512 
	C1056.911865,562.864502 1050.786621,565.835388 1044.515381,568.222107 
	C1044.520996,568.882690 1044.526489,569.543274 1044.532104,570.203857 
	C1049.456421,573.214905 1054.380737,576.226013 1059.961304,579.585754 
M1035.932251,623.495850 
	C1007.796326,642.538757 972.005249,641.967529 946.705139,620.400574 
	C923.909729,600.968872 913.032898,576.530823 921.663513,545.997437 
	C923.020508,541.196350 923.754272,536.214172 925.204346,531.445984 
	C926.272339,527.934143 925.066406,526.511719 921.928711,525.092407 
	C902.355530,516.238586 882.883972,507.160400 863.370422,498.174744 
	C854.171265,493.938751 844.953491,489.743164 835.289978,485.321411 
	C832.685974,490.523865 830.531311,495.583344 827.700989,500.231384 
	C825.634033,503.625793 826.473755,505.685516 829.324463,507.666534 
	C837.931824,513.647949 846.437683,519.783997 855.202515,525.524658 
	C857.607239,527.099670 858.626709,528.386536 858.382690,531.366638 
	C857.090759,547.140564 856.145203,562.943115 854.811707,578.713074 
	C854.664856,580.449768 853.195801,582.693909 851.681641,583.588989 
	C844.946838,587.570312 837.966858,591.135864 831.085999,594.871033 
	C820.067322,600.852173 820.052124,600.864929 824.088257,612.865845 
	C827.360352,622.594849 830.684570,632.306335 834.019043,642.123657 
	C836.033142,641.843628 837.505432,641.682800 838.961609,641.429504 
	C850.280640,639.460815 861.581360,637.376282 872.932373,635.615906 
	C874.371643,635.392639 876.618225,636.401672 877.557678,637.582214 
	C883.121521,644.574524 888.216003,651.944153 893.861694,658.866028 
	C897.427673,663.238159 901.666748,667.063354 905.627197,671.111023 
	C907.927673,673.462097 908.445251,675.825806 907.327515,679.198303 
	C903.614807,690.399963 900.354980,701.751770 896.816284,713.391968 
	C900.109314,715.049133 903.149170,716.738403 906.315735,718.141724 
	C914.971191,721.977600 923.653137,725.756714 932.380371,729.425720 
	C936.015503,730.954041 939.070190,730.282471 941.340149,726.624512 
	C946.595947,718.154724 951.940613,709.736511 957.459167,701.436890 
	C958.353394,700.092041 960.364685,698.574463 961.791443,698.639282 
	C977.433594,699.349792 993.059082,700.420593 1008.697388,701.233459 
	C1011.772400,701.393372 1013.213562,702.683167 1014.598206,705.427979 
	C1019.828552,715.796143 1025.459473,725.962280 1030.991211,736.298706 
	C1044.035645,731.800537 1056.247803,727.443970 1068.573364,723.435791 
	C1071.870239,722.363586 1072.538452,720.797119 1071.970337,717.650513 
	C1070.017700,706.834778 1068.413940,695.954773 1066.359131,685.159729 
	C1065.708496,681.741516 1066.347778,679.730713 1069.341919,677.747681 
	C1081.490234,669.702148 1092.807617,660.723877 1100.803223,648.180359 
	C1101.478394,647.121033 1103.829468,646.329590 1105.144043,646.612244 
	C1111.977051,648.081604 1118.724976,649.945618 1125.505371,651.660950 
	C1131.909180,653.281067 1138.316528,654.887451 1144.782104,656.514893 
	C1146.999023,650.817871 1148.868530,645.664673 1151.010010,640.627075 
	C1152.554688,636.993408 1151.711426,635.183472 1147.968262,633.434998 
	C1121.110840,620.889465 1094.334717,608.166138 1067.653076,595.251099 
	C1063.740234,593.357117 1061.854736,593.981140 1059.152100,597.271851 
	C1051.894897,606.108276 1044.093750,614.497925 1035.932251,623.495850 
M1539.143921,956.752991 
	C1538.276123,963.671143 1536.724243,970.583679 1536.667480,977.508484 
	C1536.486938,999.518677 1545.987549,1015.925354 1566.133911,1025.654907 
	C1571.382690,1028.189697 1576.579468,1030.840454 1581.897705,1033.219971 
	C1585.629639,1034.889648 1587.302002,1037.231689 1587.325562,1041.586426 
	C1587.572388,1087.406860 1588.290405,1133.226196 1588.299805,1179.045776 
	C1588.303711,1197.684814 1586.873291,1216.323120 1586.143799,1234.963745 
	C1585.980469,1239.136841 1584.048950,1241.447021 1579.802612,1241.759888 
	C1573.990479,1242.188110 1568.190796,1242.891846 1562.372070,1243.106567 
	C1533.231567,1244.182129 1504.081543,1245.015747 1474.945312,1246.192627 
	C1463.133057,1246.669556 1451.350342,1247.849365 1439.547485,1248.604614 
	C1436.145630,1248.822266 1434.785278,1249.985352 1434.738159,1253.769531 
	C1433.689331,1337.919922 1432.485474,1422.068237 1431.330933,1506.217285 
	C1431.314331,1507.425903 1431.549927,1508.637939 1431.692383,1510.101440 
	C1444.053833,1504.105225 1452.289429,1495.788452 1452.438477,1481.608276 
	C1452.489136,1476.779175 1452.815063,1471.951782 1452.819092,1467.123413 
	C1452.855591,1423.293701 1452.671021,1379.463013 1452.931885,1335.634888 
	C1453.056763,1314.647705 1454.077515,1293.666992 1454.508057,1272.679565 
	C1454.591919,1268.594116 1456.064209,1267.366821 1460.112183,1267.362061 
	C1484.608643,1267.333008 1509.117065,1267.465820 1533.597168,1266.732788 
	C1554.724243,1266.100098 1575.817627,1264.359985 1596.929077,1263.169434 
	C1602.583374,1262.850586 1605.731567,1260.310913 1606.148682,1254.385010 
	C1607.328613,1237.620239 1609.706665,1220.872559 1609.780518,1204.110107 
	C1609.969360,1161.287598 1609.114868,1118.461304 1608.786255,1075.635620 
	C1608.694214,1063.639648 1609.057739,1051.640625 1609.044434,1039.643188 
	C1609.040283,1035.955200 1610.193848,1033.681885 1613.641113,1031.750854 
	C1619.280273,1028.592163 1624.762329,1024.968384 1629.742798,1020.853455 
	C1642.509766,1010.305725 1651.350952,997.184814 1652.933716,980.295471 
	C1655.643555,951.382080 1635.869629,924.957275 1607.122925,918.661072 
	C1583.486328,913.484070 1550.136353,922.516052 1539.143921,956.752991 
z"/>
<path fill="#052453" opacity="1.000000" stroke="none" 
	d="
M691.531372,1.000004 
	C693.265869,2.830647 694.334534,4.842994 695.827759,6.464275 
	C714.454590,26.688585 733.351074,46.669155 751.730957,67.114502 
	C761.410583,77.881927 770.304688,89.364098 779.373840,100.667709 
	C783.308228,105.571449 788.052246,107.883255 794.382751,108.148186 
	C824.661926,109.415344 854.941284,110.745430 885.198975,112.439034 
	C921.302063,114.459824 957.382812,116.879097 993.474060,119.112129 
	C1003.450439,119.729370 1013.437805,120.190094 1023.404907,120.928810 
	C1029.570923,121.385803 1034.493408,124.013588 1037.607422,130.911072 
	C1034.805176,132.007156 1032.373291,133.523117 1029.779297,133.888000 
	C993.160889,139.039291 956.348328,143.048126 919.944946,149.407257 
	C894.926697,153.777588 870.235474,160.561142 845.825500,167.723022 
	C820.486938,175.157364 795.663208,184.346298 769.756104,193.056412 
	C762.760132,183.346298 754.857117,172.471237 747.052124,161.526337 
	C725.586243,131.425003 704.053650,101.369934 682.833252,71.096207 
	C679.541443,66.400024 675.977295,64.765984 670.698425,65.996590 
	C667.782227,66.676430 664.804688,67.169456 661.964050,68.085472 
	C637.550964,75.957863 614.791687,87.212013 593.648132,101.733154 
	C592.824646,102.298706 592.033203,102.912453 591.243469,103.525139 
	C584.586670,108.689201 584.332581,108.793297 587.448486,116.543854 
	C598.066895,142.956604 609.336853,169.116974 619.473022,195.711014 
	C627.166016,215.895004 633.517761,236.590469 640.451477,257.063385 
	C642.142944,262.057648 640.646179,264.822632 635.570679,267.366791 
	C617.431274,276.459320 601.565491,289.018799 586.442200,302.367737 
	C562.971008,323.085144 539.116943,343.476288 516.987122,365.570221 
	C500.778351,381.752716 486.789337,400.215942 472.412140,418.144714 
	C467.365326,424.438232 462.324707,426.522400 454.969482,423.629761 
	C432.063477,414.621216 409.007507,405.978821 386.254150,396.601288 
	C362.096130,386.644897 338.226074,375.990662 314.204651,365.700928 
	C311.789154,364.666199 309.197052,364.043793 307.755768,363.576538 
	C285.003357,388.334686 267.495636,415.628784 256.083282,447.256897 
	C261.620422,451.143494 267.802277,455.318542 273.811371,459.729065 
	C299.434021,478.535431 324.964874,497.467102 350.616272,516.234070 
	C360.562439,523.510864 370.757477,530.446716 380.804016,537.587402 
	C387.208893,542.139709 388.075806,544.449097 384.621704,551.431152 
	C369.805634,581.380432 359.574799,613.123779 348.469482,644.485107 
	C338.570374,672.440247 331.151794,701.156311 327.103149,730.637146 
	C325.746277,740.517578 324.174622,750.370117 322.936127,760.264832 
	C321.553619,771.309937 317.858612,775.954224 306.776123,777.125061 
	C282.097748,779.732483 257.378418,782.045410 232.631760,783.886536 
	C209.372925,785.616943 186.056442,786.567932 162.768829,787.922180 
	C160.453796,788.056824 158.139526,788.501770 155.865326,788.990662 
	C145.288101,791.264526 143.060471,793.824951 141.224060,804.308960 
	C137.863647,823.493225 138.192612,842.779541 139.143890,862.107910 
	C139.306747,865.417114 139.213196,868.754028 139.006454,872.063660 
	C138.305573,883.285522 141.865387,888.334412 152.883682,889.929321 
	C186.511688,894.797241 220.221802,899.110229 253.816788,904.189392 
	C274.548737,907.323853 295.145416,911.376465 315.738770,915.348999 
	C317.051453,915.602173 318.451630,918.635681 318.725983,920.532654 
	C321.204803,937.672363 322.544952,955.025452 325.916443,971.978333 
	C336.130432,1023.338135 348.892761,1073.989380 371.502899,1121.622681 
	C374.418915,1127.765869 376.308777,1134.389893 378.838257,1140.725586 
	C380.067963,1143.805786 379.527710,1145.965698 376.783081,1147.956787 
	C362.629578,1158.224731 348.912231,1169.137329 334.374725,1178.822510 
	C309.848480,1195.162354 284.743256,1210.630493 260.055573,1226.732178 
	C253.669678,1230.897339 247.829071,1235.934204 241.991089,1240.870117 
	C240.965683,1241.737183 240.371414,1244.507935 240.971329,1245.696045 
	C251.175079,1265.904907 261.474457,1286.068604 272.062347,1306.078369 
	C274.687683,1311.039917 278.193268,1315.590210 281.678375,1320.027832 
	C285.437134,1324.813965 290.620239,1326.163696 296.499786,1324.700317 
	C298.275085,1324.258301 300.047821,1323.755859 301.759308,1323.114624 
	C342.434937,1307.875366 383.037964,1292.438599 423.817200,1277.482422 
	C433.598755,1273.895020 443.937561,1271.795898 454.085571,1269.276001 
	C455.420502,1268.944458 458.082825,1269.752808 458.552032,1270.765015 
	C467.062958,1289.122681 480.309204,1303.971558 494.598480,1317.690918 
	C519.235046,1341.344971 544.456970,1364.401733 569.799072,1387.304199 
	C589.307007,1404.934326 609.376282,1421.943359 629.857056,1439.805054 
	C605.012085,1489.581543 579.692017,1540.309937 553.924500,1591.934814 
	C567.360840,1601.864990 580.280273,1612.670166 594.426270,1621.513306 
	C608.492493,1630.306885 623.791382,1637.128662 639.193542,1645.150391 
	C642.745911,1641.255737 646.807129,1636.914673 650.746826,1632.465820 
	C679.689331,1599.785034 708.519226,1567.003662 737.603027,1534.449219 
	C743.910400,1527.389160 751.144836,1521.162231 757.866089,1514.465088 
	C760.888611,1511.453369 763.788818,1511.497192 767.685303,1513.144897 
	C808.973938,1530.604980 850.801636,1546.670776 894.700195,1556.303345 
	C923.145508,1562.544922 951.869202,1567.534912 980.510986,1572.855347 
	C992.463440,1575.075439 995.742004,1577.644409 997.049011,1589.773315 
	C1001.225647,1628.530884 1005.101440,1667.321045 1009.067566,1706.101318 
	C1010.354126,1718.681152 1011.560974,1731.269165 1012.815979,1743.971191 
	C1039.225220,1747.470825 1065.194336,1753.082031 1091.869507,1749.660278 
	C1097.304932,1748.962891 1102.876587,1748.615234 1108.328491,1748.973877 
	C1113.110962,1749.288574 1115.048096,1747.285278 1115.765259,1743.069092 
	C1118.473389,1727.148193 1121.385376,1711.259399 1123.877441,1695.304932 
	C1128.681885,1664.546631 1133.134277,1633.732910 1138.031860,1602.989868 
	C1138.885376,1597.631958 1141.191772,1592.503052 1142.854248,1587.276978 
	C1144.497681,1582.110596 1147.975708,1579.692505 1153.453369,1579.002075 
	C1174.607544,1576.335693 1195.695923,1573.145386 1216.852051,1570.496582 
	C1260.668945,1565.011108 1302.937134,1552.969971 1345.088989,1540.453979 
	C1354.487427,1537.663208 1363.671021,1534.124268 1372.875610,1530.719482 
	C1375.906616,1529.598145 1377.337646,1530.413208 1379.362671,1532.917847 
	C1393.708496,1550.661377 1408.303467,1568.203613 1422.869751,1585.768066 
	C1442.436401,1609.362061 1462.034546,1632.930054 1481.665649,1656.470337 
	C1483.469360,1658.633301 1485.275513,1661.260498 1487.678589,1662.337646 
	C1490.604980,1663.649414 1494.760742,1664.946899 1497.359497,1663.841064 
	C1525.440552,1651.893433 1553.216919,1639.292969 1576.231689,1618.495972 
	C1576.593018,1618.169556 1576.864136,1617.743408 1577.464111,1617.016357 
	C1569.860107,1600.175537 1562.355347,1583.124756 1554.491943,1566.240967 
	C1542.970459,1541.502808 1531.007324,1516.968994 1519.636719,1492.162842 
	C1516.260742,1484.797729 1514.273315,1476.799561 1511.585571,1469.113892 
	C1510.621216,1466.356567 1511.304810,1464.391846 1513.721680,1462.708618 
	C1519.868164,1458.427979 1525.780762,1453.800781 1532.027588,1449.677002 
	C1558.742188,1432.041260 1584.313721,1412.985962 1607.461670,1390.765869 
	C1637.029907,1362.382568 1666.779419,1334.187988 1696.427124,1305.934570 
	C1702.001099,1309.913696 1702.901123,1314.125122 1699.592407,1320.129761 
	C1683.454712,1349.417358 1667.320312,1378.706787 1651.183228,1407.994873 
	C1637.198853,1433.375977 1623.348511,1458.832275 1609.161621,1484.099609 
	C1603.311890,1494.518066 1600.946777,1505.185181 1604.719360,1516.693848 
	C1612.908691,1541.675659 1621.291992,1566.593872 1629.545776,1591.554565 
	C1637.011230,1614.130981 1644.409912,1636.729492 1651.931030,1659.600952 
	C1644.226440,1663.990845 1636.798706,1668.393433 1629.217163,1672.512939 
	C1595.421143,1690.876465 1561.804077,1709.590088 1527.641235,1727.246460 
	C1515.019287,1733.769775 1501.079956,1737.747314 1487.732056,1742.861084 
	C1484.399170,1744.137939 1482.051880,1743.494751 1479.896362,1740.153076 
	C1477.023193,1735.698730 1473.464111,1731.653931 1469.953735,1727.648804 
	C1446.347290,1700.715332 1422.764771,1673.759644 1398.966431,1646.996338 
	C1392.447754,1639.665527 1385.172729,1633.010864 1378.338501,1625.955200 
	C1375.700317,1623.231445 1373.059814,1623.008789 1369.443359,1624.134155 
	C1330.003174,1636.407593 1290.341431,1647.957520 1249.652832,1655.342041 
	C1233.299805,1658.309937 1216.676392,1659.858765 1200.131470,1661.639282 
	C1196.702393,1662.008301 1196.187256,1663.576172 1195.563110,1666.176147 
	C1186.120117,1705.517090 1176.630371,1744.846924 1167.106689,1784.168335 
	C1164.565674,1794.659302 1161.873657,1805.113525 1159.109375,1816.150513 
	C1151.281494,1816.701294 1143.180786,1817.505737 1135.061646,1817.802979 
	C1093.412842,1819.328369 1051.750488,1820.204346 1010.152344,1816.855103 
	C999.066345,1815.962524 988.067566,1813.853394 977.069580,1812.052856 
	C970.858032,1811.035889 967.329407,1807.277588 966.001648,1800.883667 
	C958.452820,1764.532959 950.645447,1728.235962 943.040283,1691.896729 
	C940.891541,1681.629639 939.267944,1671.251587 937.057495,1660.999023 
	C936.651489,1659.115723 934.893921,1656.610352 933.219482,1656.070923 
	C925.650574,1653.633301 918.000671,1650.896240 910.173340,1649.913574 
	C885.515015,1646.818481 862.294800,1638.349731 838.682556,1631.456543 
	C816.652832,1625.025391 794.887817,1617.638550 773.189209,1610.142578 
	C761.441284,1606.084229 752.146545,1607.984131 743.444397,1617.202026 
	C713.937744,1648.458252 684.040894,1679.345947 654.293457,1710.374756 
	C654.062805,1710.615356 653.762634,1710.823853 653.620361,1711.109863 
	C649.232056,1719.930176 642.147095,1718.748291 635.113037,1715.598755 
	C624.032593,1710.637329 612.895996,1705.677002 602.292297,1699.797852 
	C566.017761,1679.685181 530.007568,1659.100464 495.732361,1635.655518 
	C491.884064,1633.023193 488.285217,1630.020996 484.392883,1627.460571 
	C481.664459,1625.665771 481.475494,1623.925049 482.563782,1620.874390 
	C499.233368,1574.149414 515.659790,1527.337280 532.402527,1480.638672 
	C534.106323,1475.886353 533.283691,1472.664551 529.837402,1469.574951 
	C527.728943,1467.684937 525.771667,1465.584473 523.486938,1463.938843 
	C494.077667,1442.757690 469.560028,1416.412231 445.213684,1389.890747 
	C433.607666,1377.247803 422.202118,1364.419678 410.477722,1351.888794 
	C409.235809,1350.561523 406.285370,1349.865112 404.415436,1350.255249 
	C394.653442,1352.292358 384.917023,1354.528320 375.297119,1357.154541 
	C354.918060,1362.718018 334.540497,1368.312256 314.308105,1374.379761 
	C298.858917,1379.012939 283.631042,1384.384888 268.312042,1389.450073 
	C265.943573,1390.233154 263.615936,1391.139404 261.266724,1391.980957 
	C253.931000,1394.609619 247.703156,1393.035889 243.150925,1386.646729 
	C235.133667,1375.394409 226.684174,1364.380981 219.556976,1352.578247 
	C205.095032,1328.629150 191.335281,1304.254150 177.430573,1279.972046 
	C174.626099,1275.074463 172.531754,1269.775146 169.988022,1264.722534 
	C165.203522,1255.218872 160.330063,1245.759888 155.155853,1235.620605 
	C165.048172,1227.398438 174.986938,1217.929077 186.099075,1210.131958 
	C217.522064,1188.083130 247.515945,1164.309937 276.021179,1138.627808 
	C276.144897,1138.516357 276.262207,1138.397583 276.383148,1138.282959 
	C282.399994,1132.585815 282.430908,1132.572510 279.237244,1125.053467 
	C267.145264,1096.584839 259.398804,1066.760132 252.150620,1036.825439 
	C247.454697,1017.431396 243.745987,997.798279 239.596207,978.272095 
	C239.561630,978.109314 239.541992,977.943237 239.520660,977.777954 
	C238.951187,973.364197 239.871231,967.539856 237.398453,964.929749 
	C234.881409,962.272827 228.989044,962.926147 224.634781,961.879761 
	C185.622955,952.504089 146.640182,943.006836 107.604416,933.732422 
	C101.971161,932.394043 96.103424,932.038086 90.341660,931.245972 
	C76.027962,929.278137 72.554352,926.249695 72.006050,911.983398 
	C71.270721,892.850769 70.914619,873.666931 71.421082,854.532166 
	C72.121544,828.067749 73.627129,801.620178 75.111572,775.183533 
	C75.577324,766.888916 77.253639,758.668518 78.031937,750.381836 
	C78.327560,747.234497 80.167740,746.614380 82.545288,746.168030 
	C102.345436,742.451172 122.105240,738.499023 141.957657,735.085632 
	C172.315720,729.866028 202.740829,725.036865 233.127151,719.979858 
	C235.409012,719.600098 237.989258,719.241882 239.747055,717.946106 
	C241.809174,716.426025 244.556992,713.880310 244.541992,711.797180 
	C244.368973,687.781189 254.120300,666.341553 261.621490,644.347961 
	C272.309082,613.011719 283.307068,581.781372 293.822449,551.513306 
	C252.231049,514.309387 208.613037,480.328613 169.714417,440.596191 
	C189.245880,409.975372 208.261139,380.041168 227.410110,350.192719 
	C237.482956,334.491669 247.525284,318.759399 258.069397,303.375702 
	C267.474579,289.653748 267.818054,289.718140 283.352631,295.012726 
	C329.987091,310.906860 376.592682,326.886139 423.163971,342.964172 
	C426.115265,343.983032 428.059753,343.768646 430.131592,341.470093 
	C432.693329,338.628174 435.738556,336.213074 438.224976,333.313568 
	C461.167816,306.559235 489.774017,286.107391 516.177917,263.213501 
	C529.899475,251.316071 543.909058,239.748093 557.914368,228.183578 
	C560.299500,226.214127 561.182312,224.429855 560.206543,221.423523 
	C554.916260,205.124847 549.888428,188.740082 544.505371,172.472610 
	C534.679321,142.778519 524.392456,113.233765 514.877625,83.441513 
	C511.382446,72.497536 512.110718,72.224426 521.779419,66.184814 
	C559.422180,42.670933 598.486511,21.891733 639.575073,5.008572 
	C642.031433,3.999266 644.410828,2.802764 646.913025,1.346694 
	C661.687561,1.000000 676.375122,1.000000 691.531372,1.000004 
z"/>
<path fill="#174FA4" opacity="1.000000" stroke="none" 
	d="
M626.963562,594.958740 
	C608.237793,640.272522 597.537415,686.914429 596.997437,735.695435 
	C596.339905,795.097168 613.981995,848.850647 647.308777,897.706177 
	C663.819275,921.909729 681.995911,944.619690 705.949463,962.035156 
	C717.208801,970.221252 729.216309,976.950745 742.850159,980.404602 
	C768.947937,987.015930 789.466187,977.007751 800.159851,952.274963 
	C806.406189,937.828064 808.564575,922.523499 809.021423,906.937012 
	C810.121277,869.412598 803.663879,832.885071 793.431824,797.019226 
	C780.103149,750.298828 762.507141,705.180786 739.893860,662.129211 
	C734.714905,652.269348 728.317566,643.054321 722.610168,633.465576 
	C717.417114,624.740906 712.509094,615.865906 710.502930,604.803406 
	C716.659363,605.151184 722.387939,605.298096 728.080627,605.829773 
	C744.662354,607.378296 761.237732,609.004456 777.800415,610.744446 
	C794.633240,612.512817 808.330383,620.710205 820.314758,632.124512 
	C838.685242,649.621216 852.174255,670.735901 862.856567,693.397705 
	C879.822998,729.390625 895.703796,765.897644 911.880737,802.259705 
	C924.065613,829.648438 936.298157,857.022949 947.947266,884.640930 
	C958.240356,909.044067 973.361084,930.097168 989.854309,950.585266 
	C1006.446045,971.195618 1025.513794,989.270508 1044.072144,1007.932251 
	C1056.047241,1019.974121 1067.823120,1032.269043 1078.927490,1045.108765 
	C1094.961304,1063.648438 1102.693604,1085.715088 1104.094360,1110.083984 
	C1105.550171,1135.407715 1100.545776,1159.802246 1093.522827,1183.911743 
	C1082.781006,1220.787476 1067.025024,1255.737549 1052.529541,1291.182983 
	C1038.036865,1326.621460 1022.944946,1361.878296 1014.588623,1399.478638 
	C1014.299438,1400.779541 1013.976929,1402.073364 1013.703735,1403.377563 
	C1012.251953,1410.308105 1010.452332,1411.768311 1003.198364,1411.807495 
	C903.535400,1412.345215 803.872437,1412.882080 704.209473,1413.409668 
	C696.912842,1413.448242 689.615845,1413.414673 681.206604,1413.414673 
	C683.474609,1405.441162 684.961060,1397.727661 687.835754,1390.571777 
	C696.772156,1368.326294 706.476074,1346.389526 715.431030,1324.151367 
	C725.899902,1298.153198 731.870483,1271.114014 733.307495,1243.049438 
	C735.040527,1209.202881 723.504333,1179.913452 702.997192,1153.758179 
	C695.299377,1143.940186 687.510559,1133.980713 678.456970,1125.476318 
	C643.887451,1093.003906 616.424561,1055.031616 591.261841,1015.199097 
	C561.674561,968.362549 537.311462,919.089539 521.970276,865.645264 
	C498.085388,782.436951 500.385162,699.469238 524.228271,616.689636 
	C534.863037,579.767273 548.153259,543.910828 567.163696,510.389038 
	C577.985718,491.306213 590.365906,473.388763 607.630371,459.392761 
	C617.415588,451.459961 628.507568,446.468414 640.988220,444.479553 
	C664.515930,440.730225 680.747864,456.890656 675.140869,480.101654 
	C671.807678,493.899689 666.193542,507.260956 660.542725,520.360413 
	C649.793213,545.279419 638.281860,569.869690 626.963562,594.958740 
z"/>
<path fill="#1850A4" opacity="1.000000" stroke="none" 
	d="
M1349.426636,565.350525 
	C1369.119141,646.743958 1410.354370,715.325562 1471.676025,772.192932 
	C1483.360718,783.028809 1494.027832,795.054626 1504.347778,807.223999 
	C1508.510620,812.132751 1510.693604,818.811035 1513.276855,824.896606 
	C1513.833862,826.208618 1512.758179,828.967834 1511.547974,830.161682 
	C1495.544678,845.949890 1479.180054,861.376221 1463.351807,877.335449 
	C1456.172607,884.573975 1450.524658,893.117554 1447.981201,903.285339 
	C1445.987915,911.253052 1446.989624,918.954834 1451.041870,926.005371 
	C1454.936401,932.781067 1459.407104,939.224426 1463.582397,945.840637 
	C1464.824951,947.809753 1465.896118,949.886047 1467.095337,951.883545 
	C1470.966553,958.332275 1471.128784,964.719910 1466.986572,971.144592 
	C1460.400879,981.359375 1453.981323,991.683411 1447.251465,1001.801636 
	C1445.471191,1004.478210 1444.817383,1006.562744 1446.810303,1009.357788 
	C1452.598267,1017.476013 1457.748779,1026.103882 1464.079346,1033.762939 
	C1469.182617,1039.937256 1470.184570,1045.742310 1466.247070,1052.452637 
	C1460.012207,1063.078369 1454.121826,1073.950684 1447.201416,1084.116821 
	C1440.721069,1093.636230 1440.298218,1102.713745 1444.371948,1113.308105 
	C1449.728394,1127.238770 1454.958740,1141.412109 1458.127808,1155.942383 
	C1462.462280,1175.815796 1453.961426,1190.807373 1434.596069,1196.973755 
	C1422.071777,1200.961792 1408.602173,1202.760742 1395.423584,1203.723511 
	C1377.670166,1205.020508 1359.784668,1204.407715 1341.963989,1204.904297 
	C1314.919312,1205.657837 1289.104858,1211.155151 1265.694580,1225.500244 
	C1242.944580,1239.440796 1227.177490,1259.560303 1215.084473,1282.856934 
	C1201.887085,1308.281494 1193.527954,1335.502441 1185.915039,1362.970459 
	C1181.646851,1378.370361 1177.548950,1393.817871 1173.475342,1409.270630 
	C1172.824585,1411.739624 1172.231323,1413.354614 1169.036499,1413.341919 
	C1143.708130,1413.240845 1118.379028,1413.337280 1093.050171,1413.351196 
	C1092.255737,1413.351562 1091.461304,1413.116699 1089.839844,1412.861206 
	C1092.863281,1405.627808 1095.501343,1398.657593 1098.640015,1391.920776 
	C1112.914795,1361.280029 1127.500000,1330.783203 1141.639038,1300.080444 
	C1152.012085,1277.555908 1161.636719,1254.685669 1172.083008,1232.196167 
	C1175.497192,1224.846069 1180.167358,1218.018921 1184.744385,1211.279419 
	C1206.681274,1178.978760 1237.278198,1162.473022 1276.326416,1162.259521 
	C1292.644897,1162.170288 1308.980469,1162.771118 1325.286865,1163.521362 
	C1347.354980,1164.536987 1367.893066,1159.518188 1387.340576,1149.268311 
	C1389.856934,1147.942017 1390.770020,1146.588501 1390.219727,1143.872925 
	C1386.286743,1124.467285 1382.473633,1105.037231 1378.493042,1085.641479 
	C1376.820312,1077.491943 1374.887573,1069.393921 1372.969727,1061.296997 
	C1371.761719,1056.196411 1373.188110,1051.989258 1376.166870,1047.747070 
	C1382.573486,1038.622437 1388.621094,1029.242920 1394.691895,1019.887573 
	C1396.013428,1017.850891 1396.815796,1015.477417 1397.576538,1013.856995 
	C1391.066162,1008.602051 1384.972168,1003.683167 1378.542114,998.493042 
	C1383.104370,992.855225 1386.576294,988.177185 1390.447754,983.857178 
	C1399.916626,973.291260 1401.304688,961.701782 1395.021973,949.209717 
	C1391.510986,942.228821 1387.531738,935.482666 1383.732178,928.648071 
	C1382.438110,926.320251 1380.968872,924.088074 1379.715088,921.739868 
	C1370.896973,905.223267 1371.916382,894.415710 1383.776489,879.953003 
	C1391.802002,870.166443 1400.146973,860.636597 1408.003784,850.718445 
	C1419.750610,835.889832 1420.320923,819.680664 1410.452759,804.191345 
	C1401.993408,790.912964 1392.028931,778.491516 1381.867432,766.417053 
	C1339.290771,715.825317 1309.273315,658.596985 1290.735229,595.287659 
	C1288.274292,586.883423 1287.663696,577.937378 1286.559326,568.706299 
	C1292.223877,567.036072 1297.510010,565.025818 1302.829590,564.932922 
	C1318.354736,564.661743 1333.893311,565.156189 1349.426636,565.350525 
z"/>
<path fill="#1850A4" opacity="1.000000" stroke="none" 
	d="
M1273.874390,540.718018 
	C1232.698730,443.747742 1160.200195,382.336700 1059.576416,353.959961 
	C1012.214172,340.603455 963.988220,342.073242 915.923462,351.350342 
	C873.299866,359.577179 833.743835,375.963776 795.883057,396.781830 
	C779.246094,405.929749 762.775757,415.385040 746.040222,424.346954 
	C739.612183,427.789215 732.841125,430.818512 725.909363,433.052521 
	C698.036377,442.035675 677.063843,424.116486 681.270081,395.192810 
	C683.682251,378.605988 690.804443,364.510376 703.235779,353.104462 
	C721.644287,336.214355 743.602661,325.588593 766.738464,317.157684 
	C809.469238,301.586029 853.906372,294.085175 899.018799,290.257233 
	C947.465149,286.146423 995.919983,286.464020 1044.234375,292.143585 
	C1085.551880,297.000610 1126.174194,305.012543 1164.496094,322.009064 
	C1195.229492,335.639984 1221.404297,355.877411 1245.243652,379.189514 
	C1285.106567,418.170990 1316.167236,463.014801 1334.384155,516.119873 
	C1336.972290,523.664246 1338.781006,531.475830 1340.514404,539.631287 
	C1318.010376,540.305237 1295.942383,540.511597 1273.874390,540.718018 
z"/>
<path fill="#039FE0" opacity="1.000000" stroke="none" 
	d="
M1059.633179,579.411377 
	C1054.380737,576.226013 1049.456421,573.214905 1044.532104,570.203857 
	C1044.526489,569.543274 1044.520996,568.882690 1044.515381,568.222107 
	C1050.786621,565.835388 1056.911865,562.864502 1063.375977,561.249512 
	C1068.418823,559.989380 1071.848999,557.569885 1073.987061,553.132874 
	C1079.118408,542.483887 1084.285645,531.847107 1089.136963,521.069763 
	C1092.636719,513.294617 1096.994873,507.145233 1106.189575,505.182922 
	C1112.929077,503.744537 1117.399658,493.598907 1115.510864,485.807922 
	C1113.529297,477.634186 1108.196289,472.427521 1100.158447,470.305603 
	C1092.446655,468.269775 1085.228638,471.803314 1083.152832,479.481476 
	C1081.627563,485.123749 1081.185059,491.318329 1081.625244,497.164001 
	C1082.128540,503.847809 1081.780273,510.112732 1078.851929,516.134094 
	C1074.556030,524.967834 1070.529907,533.960449 1065.685303,542.485657 
	C1063.866577,545.686279 1060.479126,548.636292 1057.110107,550.184692 
	C1049.567871,553.651245 1041.553833,556.078064 1033.796997,559.095520 
	C1026.793701,561.819763 1020.319702,560.661865 1014.395813,556.490479 
	C1013.207092,555.653381 1012.083862,553.005005 1012.544983,551.820007 
	C1015.731934,543.629333 1018.982483,535.420715 1022.946350,527.589294 
	C1025.787598,521.976013 1030.610962,517.966248 1036.889648,516.165039 
	C1048.224854,512.913330 1050.333252,504.243958 1047.953857,493.502289 
	C1046.060547,484.954773 1037.405518,479.842529 1028.265869,481.231476 
	C1018.083496,482.778900 1009.953430,490.948364 1012.471375,500.684967 
	C1017.304321,519.373169 1008.244690,533.608765 1000.512817,548.625549 
	C990.398438,547.927063 984.980042,543.280823 981.124268,534.305420 
	C974.995850,520.039734 975.257568,506.860046 984.129517,493.637390 
	C989.763916,485.239868 993.978455,475.900848 999.081299,467.130402 
	C1001.290100,463.334198 1004.447083,460.929840 1009.216797,459.852081 
	C1015.075317,458.528259 1016.660217,452.627258 1018.242188,447.608978 
	C1021.693787,436.659424 1013.965149,425.788483 1002.611389,424.534637 
	C989.943176,423.135590 978.530762,440.114441 983.908386,449.281891 
	C987.391479,455.219788 986.348633,461.399719 983.362305,467.449799 
	C977.465698,479.396088 971.871582,491.492371 965.920349,503.410736 
	C962.595703,510.069000 961.468506,516.503601 965.231750,523.399780 
	C966.558655,525.831543 967.033752,528.728088 968.191772,532.325867 
	C965.514221,531.806946 963.352356,531.783447 961.543518,530.972412 
	C950.922058,526.209961 940.335205,521.361206 929.885437,516.238159 
	C928.761047,515.686890 927.679504,512.826538 928.138062,511.640381 
	C930.530579,505.452301 933.379333,499.437073 936.161133,493.404053 
	C939.500061,486.162720 943.485352,479.163055 946.170837,471.692139 
	C948.984070,463.865448 947.157776,460.049286 939.369995,457.286316 
	C931.111023,454.356232 926.682922,448.844116 924.364502,440.709717 
	C922.247925,433.283691 916.016907,430.688110 909.108887,429.749023 
	C902.157715,428.804108 897.191467,432.199951 893.992859,438.130035 
	C890.503296,444.599640 890.187500,451.592163 891.991272,458.551666 
	C893.572876,464.653961 905.582825,468.753204 912.960144,466.655304 
	C917.295532,465.422455 922.045898,464.639587 926.487000,465.034302 
	C932.516357,465.570160 933.015198,466.760071 931.450867,472.498840 
	C928.004578,485.141876 922.064636,496.641418 914.888062,507.954437 
	C895.146484,502.262360 877.414246,493.737244 865.570068,476.186249 
	C844.501038,444.966003 864.185364,403.217102 902.231018,397.911377 
	C912.963623,396.414673 922.854370,398.754608 932.102417,403.709625 
	C938.774963,407.284760 943.431763,408.248322 949.917480,401.857300 
	C963.760803,388.215973 980.794800,386.769287 998.633179,393.622040 
	C1003.133789,395.350952 1007.558350,397.339050 1011.842651,399.547821 
	C1014.622559,400.980988 1016.538147,400.788391 1018.838257,398.550323 
	C1021.808167,395.660522 1025.181152,393.165955 1028.494263,390.650848 
	C1055.956177,369.803589 1094.599487,387.126343 1101.951172,416.403503 
	C1103.762817,423.618042 1104.591675,431.079376 1105.941040,438.821960 
	C1107.041382,439.110687 1108.623291,439.549469 1110.217041,439.940399 
	C1132.412354,445.384949 1145.423340,460.668549 1146.943604,483.477356 
	C1147.330200,489.278107 1147.220581,495.145355 1146.843262,500.949860 
	C1146.648804,503.943665 1147.567017,505.675079 1150.091431,506.903839 
	C1151.886353,507.777557 1153.584961,508.857971 1155.405518,509.668762 
	C1177.033691,519.300598 1190.012695,545.518250 1184.470093,568.446777 
	C1178.804932,591.882324 1155.960205,609.484497 1132.131836,607.827087 
	C1124.815674,607.318176 1117.318359,605.189331 1110.516724,602.339722 
	C1093.478027,595.201172 1076.790039,587.225525 1059.633179,579.411377 
z"/>
<path fill="#039FE0" opacity="1.000000" stroke="none" 
	d="
M1036.220459,623.280396 
	C1044.093750,614.497925 1051.894897,606.108276 1059.152100,597.271851 
	C1061.854736,593.981140 1063.740234,593.357117 1067.653076,595.251099 
	C1094.334717,608.166138 1121.110840,620.889465 1147.968262,633.434998 
	C1151.711426,635.183472 1152.554688,636.993408 1151.010010,640.627075 
	C1148.868530,645.664673 1146.999023,650.817871 1144.782104,656.514893 
	C1138.316528,654.887451 1131.909180,653.281067 1125.505371,651.660950 
	C1118.724976,649.945618 1111.977051,648.081604 1105.144043,646.612244 
	C1103.829468,646.329590 1101.478394,647.121033 1100.803223,648.180359 
	C1092.807617,660.723877 1081.490234,669.702148 1069.341919,677.747681 
	C1066.347778,679.730713 1065.708496,681.741516 1066.359131,685.159729 
	C1068.413940,695.954773 1070.017700,706.834778 1071.970337,717.650513 
	C1072.538452,720.797119 1071.870239,722.363586 1068.573364,723.435791 
	C1056.247803,727.443970 1044.035645,731.800537 1030.991211,736.298706 
	C1025.459473,725.962280 1019.828552,715.796143 1014.598206,705.427979 
	C1013.213562,702.683167 1011.772400,701.393372 1008.697388,701.233459 
	C993.059082,700.420593 977.433594,699.349792 961.791443,698.639282 
	C960.364685,698.574463 958.353394,700.092041 957.459167,701.436890 
	C951.940613,709.736511 946.595947,718.154724 941.340149,726.624512 
	C939.070190,730.282471 936.015503,730.954041 932.380371,729.425720 
	C923.653137,725.756714 914.971191,721.977600 906.315735,718.141724 
	C903.149170,716.738403 900.109314,715.049133 896.816284,713.391968 
	C900.354980,701.751770 903.614807,690.399963 907.327515,679.198303 
	C908.445251,675.825806 907.927673,673.462097 905.627197,671.111023 
	C901.666748,667.063354 897.427673,663.238159 893.861694,658.866028 
	C888.216003,651.944153 883.121521,644.574524 877.557678,637.582214 
	C876.618225,636.401672 874.371643,635.392639 872.932373,635.615906 
	C861.581360,637.376282 850.280640,639.460815 838.961609,641.429504 
	C837.505432,641.682800 836.033142,641.843628 834.019043,642.123657 
	C830.684570,632.306335 827.360352,622.594849 824.088257,612.865845 
	C820.052124,600.864929 820.067322,600.852173 831.085999,594.871033 
	C837.966858,591.135864 844.946838,587.570312 851.681641,583.588989 
	C853.195801,582.693909 854.664856,580.449768 854.811707,578.713074 
	C856.145203,562.943115 857.090759,547.140564 858.382690,531.366638 
	C858.626709,528.386536 857.607239,527.099670 855.202515,525.524658 
	C846.437683,519.783997 837.931824,513.647949 829.324463,507.666534 
	C826.473755,505.685516 825.634033,503.625793 827.700989,500.231384 
	C830.531311,495.583344 832.685974,490.523865 835.289978,485.321411 
	C844.953491,489.743164 854.171265,493.938751 863.370422,498.174744 
	C882.883972,507.160400 902.355530,516.238586 921.928711,525.092407 
	C925.066406,526.511719 926.272339,527.934143 925.204346,531.445984 
	C923.754272,536.214172 923.020508,541.196350 921.663513,545.997437 
	C913.032898,576.530823 923.909729,600.968872 946.705139,620.400574 
	C972.005249,641.967529 1007.796326,642.538757 1036.220459,623.280396 
z"/>
<path fill="#EB840E" opacity="1.000000" stroke="none" 
	d="
M1539.260986,956.370850 
	C1550.136353,922.516052 1583.486328,913.484070 1607.122925,918.661072 
	C1635.869629,924.957275 1655.643555,951.382080 1652.933716,980.295471 
	C1651.350952,997.184814 1642.509766,1010.305725 1629.742798,1020.853455 
	C1624.762329,1024.968384 1619.280273,1028.592163 1613.641113,1031.750854 
	C1610.193848,1033.681885 1609.040283,1035.955200 1609.044434,1039.643188 
	C1609.057739,1051.640625 1608.694214,1063.639648 1608.786255,1075.635620 
	C1609.114868,1118.461304 1609.969360,1161.287598 1609.780518,1204.110107 
	C1609.706665,1220.872559 1607.328613,1237.620239 1606.148682,1254.385010 
	C1605.731567,1260.310913 1602.583374,1262.850586 1596.929077,1263.169434 
	C1575.817627,1264.359985 1554.724243,1266.100098 1533.597168,1266.732788 
	C1509.117065,1267.465820 1484.608643,1267.333008 1460.112183,1267.362061 
	C1456.064209,1267.366821 1454.591919,1268.594116 1454.508057,1272.679565 
	C1454.077515,1293.666992 1453.056763,1314.647705 1452.931885,1335.634888 
	C1452.671021,1379.463013 1452.855591,1423.293701 1452.819092,1467.123413 
	C1452.815063,1471.951782 1452.489136,1476.779175 1452.438477,1481.608276 
	C1452.289429,1495.788452 1444.053833,1504.105225 1431.692383,1510.101440 
	C1431.549927,1508.637939 1431.314331,1507.425903 1431.330933,1506.217285 
	C1432.485474,1422.068237 1433.689331,1337.919922 1434.738159,1253.769531 
	C1434.785278,1249.985352 1436.145630,1248.822266 1439.547485,1248.604614 
	C1451.350342,1247.849365 1463.133057,1246.669556 1474.945312,1246.192627 
	C1504.081543,1245.015747 1533.231567,1244.182129 1562.372070,1243.106567 
	C1568.190796,1242.891846 1573.990479,1242.188110 1579.802612,1241.759888 
	C1584.048950,1241.447021 1585.980469,1239.136841 1586.143799,1234.963745 
	C1586.873291,1216.323120 1588.303711,1197.684814 1588.299805,1179.045776 
	C1588.290405,1133.226196 1587.572388,1087.406860 1587.325562,1041.586426 
	C1587.302002,1037.231689 1585.629639,1034.889648 1581.897705,1033.219971 
	C1576.579468,1030.840454 1571.382690,1028.189697 1566.133911,1025.654907 
	C1545.987549,1015.925354 1536.486938,999.518677 1536.667480,977.508484 
	C1536.724243,970.583679 1538.276123,963.671143 1539.260986,956.370850 
M1580.445557,1011.279846 
	C1581.549561,1011.645264 1582.637817,1012.070374 1583.759888,1012.367249 
	C1601.744263,1017.125000 1620.682739,1009.227112 1628.070190,993.903992 
	C1636.094116,977.260193 1631.273804,954.995117 1617.375366,944.504211 
	C1602.645752,933.385864 1577.200073,937.916565 1564.288208,953.504761 
	C1550.116333,970.614502 1555.426025,1001.289917 1580.445557,1011.279846 
z"/>
<path fill="#EB830E" opacity="1.000000" stroke="none" 
	d="
M1354.949219,421.023865 
	C1310.516846,411.954315 1283.674072,366.799713 1298.715698,323.511841 
	C1314.020752,279.465820 1355.322998,268.319092 1391.442261,277.446808 
	C1423.249268,285.484741 1446.295532,311.378265 1448.852173,343.534760 
	C1450.797852,368.007111 1441.202271,388.490509 1422.555298,404.440063 
	C1410.900757,414.408722 1397.282104,420.291718 1381.103394,422.064636 
	C1371.793701,421.673615 1363.371460,421.348724 1354.949219,421.023865 
M1418.586914,333.031799 
	C1419.602417,333.889832 1420.603882,335.442810 1421.636108,335.463501 
	C1423.898071,335.508789 1426.996338,335.504974 1428.201416,334.145660 
	C1429.271851,332.937958 1428.485107,329.826660 1428.040405,327.653351 
	C1427.849976,326.722626 1426.489746,325.989563 1425.591431,325.251465 
	C1403.697754,307.263000 1378.978149,301.128448 1351.265015,307.546051 
	C1337.839111,310.655212 1326.036987,316.877777 1315.781494,326.047394 
	C1313.427734,328.151947 1312.211304,330.535797 1314.806641,333.349701 
	C1317.088501,335.823792 1319.616211,336.095825 1322.349121,334.109436 
	C1323.021851,333.620422 1323.650146,333.070526 1324.300903,332.551086 
	C1353.032349,309.617493 1389.122314,309.623444 1418.586914,333.031799 
M1334.826050,351.494537 
	C1336.763916,350.738037 1338.832764,350.206726 1340.609009,349.172729 
	C1343.323486,347.592682 1345.652466,345.277985 1348.463379,343.948120 
	C1367.677612,334.858032 1385.821411,336.376862 1402.490356,350.025726 
	C1405.570312,352.547607 1408.580811,353.913483 1411.570312,350.427032 
	C1414.582886,346.913910 1412.147095,344.425049 1409.458984,342.070312 
	C1388.335571,323.565430 1355.165527,323.208374 1333.731689,341.289307 
	C1328.960327,345.314270 1329.058594,347.698669 1334.826050,351.494537 
M1356.415894,352.774353 
	C1354.214478,353.935699 1351.979248,355.037659 1349.820068,356.272858 
	C1346.886230,357.951355 1344.220459,360.174377 1346.372192,363.814026 
	C1348.590332,367.566376 1351.893311,367.295715 1355.403687,365.090912 
	C1366.352417,358.214600 1377.342773,358.274872 1388.241089,365.275085 
	C1391.602905,367.434387 1394.706177,367.269623 1396.838623,363.782776 
	C1399.153931,359.996918 1396.301392,358.020630 1393.513306,356.258759 
	C1382.015869,348.993225 1369.846436,348.167999 1356.415894,352.774353 
M1378.331421,374.990326 
	C1371.912109,371.197083 1365.409546,372.389038 1362.336914,377.922180 
	C1359.914551,382.284180 1360.991089,387.313080 1365.001465,390.368530 
	C1369.562256,393.843384 1375.506958,393.386749 1379.443970,389.259125 
	C1383.284424,385.232727 1383.107788,380.685120 1378.331421,374.990326 
z"/>
<path fill="#E69131" opacity="1.000000" stroke="none" 
	d="
M1355.054565,421.441589 
	C1363.371460,421.348724 1371.793701,421.673615 1380.685425,422.037689 
	C1380.965942,424.206848 1380.594482,426.338531 1380.614746,428.466492 
	C1381.025146,471.672119 1381.481323,514.877319 1381.924561,558.082581 
	C1381.942993,559.886230 1381.926880,561.690308 1381.926880,564.263550 
	C1371.219604,564.567444 1360.831421,564.862366 1349.934937,565.253906 
	C1333.893311,565.156189 1318.354736,564.661743 1302.829590,564.932922 
	C1297.510010,565.025818 1292.223877,567.036072 1286.568848,568.310425 
	C1277.318848,567.299561 1268.445557,565.426636 1259.521362,565.140747 
	C1237.727905,564.442566 1215.910767,564.477295 1194.103149,564.222168 
	C1192.302979,564.201111 1190.502319,564.219360 1188.559082,564.219360 
	C1188.559082,556.353760 1188.559082,548.953613 1188.559082,540.848022 
	C1216.987183,540.848022 1244.896606,540.848022 1273.340332,540.783020 
	C1295.942383,540.511597 1318.010376,540.305237 1340.542603,540.023560 
	C1346.606079,539.948364 1352.205200,539.948364 1357.728149,539.948364 
	C1357.728149,527.085815 1357.928711,515.327271 1357.686035,503.577850 
	C1357.195312,479.814178 1356.480103,456.054962 1355.814453,432.295135 
	C1355.716919,428.813171 1355.383911,425.337799 1355.054565,421.441589 
z"/>
<path fill="#FFFEFD" opacity="1.000000" stroke="none" 
	d="
M1580.080322,1011.150146 
	C1555.426025,1001.289917 1550.116333,970.614502 1564.288208,953.504761 
	C1577.200073,937.916565 1602.645752,933.385864 1617.375366,944.504211 
	C1631.273804,954.995117 1636.094116,977.260193 1628.070190,993.903992 
	C1620.682739,1009.227112 1601.744263,1017.125000 1583.759888,1012.367249 
	C1582.637817,1012.070374 1581.549561,1011.645264 1580.080322,1011.150146 
z"/>
<path fill="#FEF9F5" opacity="1.000000" stroke="none" 
	d="
M1418.301758,332.798950 
	C1389.122314,309.623444 1353.032349,309.617493 1324.300903,332.551086 
	C1323.650146,333.070526 1323.021851,333.620422 1322.349121,334.109436 
	C1319.616211,336.095825 1317.088501,335.823792 1314.806641,333.349701 
	C1312.211304,330.535797 1313.427734,328.151947 1315.781494,326.047394 
	C1326.036987,316.877777 1337.839111,310.655212 1351.265015,307.546051 
	C1378.978149,301.128448 1403.697754,307.263000 1425.591431,325.251465 
	C1426.489746,325.989563 1427.849976,326.722626 1428.040405,327.653351 
	C1428.485107,329.826660 1429.271851,332.937958 1428.201416,334.145660 
	C1426.996338,335.504974 1423.898071,335.508789 1421.636108,335.463501 
	C1420.603882,335.442810 1419.602417,333.889832 1418.301758,332.798950 
z"/>
<path fill="#FEFAF5" opacity="1.000000" stroke="none" 
	d="
M1334.484375,351.382080 
	C1329.058594,347.698669 1328.960327,345.314270 1333.731689,341.289307 
	C1355.165527,323.208374 1388.335571,323.565430 1409.458984,342.070312 
	C1412.147095,344.425049 1414.582886,346.913910 1411.570312,350.427032 
	C1408.580811,353.913483 1405.570312,352.547607 1402.490356,350.025726 
	C1385.821411,336.376862 1367.677612,334.858032 1348.463379,343.948120 
	C1345.652466,345.277985 1343.323486,347.592682 1340.609009,349.172729 
	C1338.832764,350.206726 1336.763916,350.738037 1334.484375,351.382080 
z"/>
<path fill="#FEFAF6" opacity="1.000000" stroke="none" 
	d="
M1356.781494,352.637207 
	C1369.846436,348.167999 1382.015869,348.993225 1393.513306,356.258759 
	C1396.301392,358.020630 1399.153931,359.996918 1396.838623,363.782776 
	C1394.706177,367.269623 1391.602905,367.434387 1388.241089,365.275085 
	C1377.342773,358.274872 1366.352417,358.214600 1355.403687,365.090912 
	C1351.893311,367.295715 1348.590332,367.566376 1346.372192,363.814026 
	C1344.220459,360.174377 1346.886230,357.951355 1349.820068,356.272858 
	C1351.979248,355.037659 1354.214478,353.935699 1356.781494,352.637207 
z"/>
<path fill="#FEFBF7" opacity="1.000000" stroke="none" 
	d="
M1378.620972,375.254059 
	C1383.107788,380.685120 1383.284424,385.232727 1379.443970,389.259125 
	C1375.506958,393.386749 1369.562256,393.843384 1365.001465,390.368530 
	C1360.991089,387.313080 1359.914551,382.284180 1362.336914,377.922180 
	C1365.409546,372.389038 1371.912109,371.197083 1378.620972,375.254059 
z"/>
</svg>